<svg width="23" height="17" viewBox="0 0 23 17" fill="none" xmlns="http://www.w3.org/2000/svg">
<path d="M0 1.5C0 0.671573 0.671573 0 1.5 0H21.5C22.3284 0 23 0.671573 23 1.5C23 2.32843 22.3284 3 21.5 3H1.5C0.671573 3 0 2.32843 0 1.5Z" fill="#F0F2F6"/>
<path d="M0 8.5C0 7.67157 0.671573 7 1.5 7H21.5C22.3284 7 23 7.67157 23 8.5C23 9.32843 22.3284 10 21.5 10H1.5C0.671573 10 0 9.32843 0 8.5Z" fill="#F0F2F6"/>
<path d="M0 15.5C0 14.6716 0.671573 14 1.5 14H21.5C22.3284 14 23 14.6716 23 15.5C23 16.3284 22.3284 17 21.5 17H1.5C0.671573 17 0 16.3284 0 15.5Z" fill="#F0F2F6"/>
</svg>
