<svg width="18" height="18" viewBox="0 0 18 18" fill="none" xmlns="http://www.w3.org/2000/svg">
<path d="M17.5751 1.07814C18.1511 1.67361 18.1352 2.62323 17.5398 3.19917L3.16387 17.1036C2.5684 17.6795 1.61878 17.6637 1.04284 17.0682C0.466901 16.4728 0.482732 15.5232 1.0782 14.9472L15.4541 1.04278C16.0496 0.466839 16.9992 0.482671 17.5751 1.07814Z" fill="#F0F2F6"/>
<path d="M1.04285 1.07814C0.466907 1.67361 0.482738 2.62323 1.07821 3.19917L15.4541 17.1036C16.0496 17.6795 16.9992 17.6637 17.5751 17.0682C18.1511 16.4728 18.1352 15.5232 17.5398 14.9472L3.16387 1.04278C2.5684 0.466839 1.61879 0.482671 1.04285 1.07814Z" fill="#F0F2F6"/>
</svg>
