<svg width="18" height="13" viewBox="0 0 18 13" fill="none" xmlns="http://www.w3.org/2000/svg">
<path d="M14.8761 1.41542C13.3811 0.213984 11.0171 0.0104547 10.9172 0.00182012C10.7593 -0.0117485 10.6094 0.0776812 10.5447 0.222002C10.5422 0.226936 10.4102 0.609941 10.2825 0.979377C12.0199 1.28344 13.2004 1.95817 13.2633 1.99517C13.5581 2.16663 13.6568 2.5447 13.4847 2.83889C13.3706 3.03502 13.164 3.1448 12.9519 3.1448C12.8464 3.1448 12.7403 3.11828 12.6429 3.06154C12.6256 3.05106 10.8937 2.06548 8.6358 2.06548C6.37725 2.06548 4.64478 3.05167 4.62751 3.06154C4.33332 3.23238 3.95587 3.13185 3.78503 2.83704C3.61418 2.54347 3.71348 2.16663 4.00706 1.99517C4.06997 1.95817 5.25475 1.28097 6.99709 0.977527C6.86263 0.603773 6.72695 0.226936 6.72448 0.222002C6.65972 0.0770644 6.50985 -0.0142155 6.35196 0.00182012C6.25205 0.00983794 3.88802 0.213367 2.37327 1.43146C1.58136 2.16293 0 6.43951 0 10.137C0 10.2023 0.0166524 10.2659 0.0493404 10.3226C1.14161 12.2407 4.11931 12.7427 4.79774 12.7643C4.80206 12.7649 4.80576 12.7649 4.80946 12.7649C4.92911 12.7649 5.04197 12.7076 5.1129 12.6108L5.84684 11.6166C4.23711 11.2286 3.38599 10.6186 3.33479 10.581C3.06096 10.3793 3.00175 9.99325 3.20343 9.7188C3.40449 9.44557 3.78934 9.38513 4.06318 9.58558C4.086 9.60038 5.65688 10.7001 8.63457 10.7001C11.624 10.7001 13.1905 9.59606 13.206 9.58496C13.4798 9.38636 13.8659 9.44619 14.0663 9.72126C14.2662 9.9951 14.2082 10.3787 13.9356 10.5798C13.8844 10.6174 13.0376 11.2261 11.4316 11.6141L12.1562 12.6101C12.2272 12.7076 12.34 12.7643 12.4597 12.7643C12.464 12.7643 12.4677 12.7643 12.4714 12.7637C13.1505 12.7421 16.1281 12.2401 17.2198 10.322C17.2525 10.2652 17.2691 10.2017 17.2691 10.1363C17.2691 6.43951 15.6878 2.16293 14.8761 1.41542ZM6.16755 8.84979C5.48604 8.84979 4.93404 8.15964 4.93404 7.3079C4.93404 6.45616 5.48604 5.76601 6.16755 5.76601C6.84906 5.76601 7.40106 6.45616 7.40106 7.3079C7.40106 8.15964 6.84906 8.84979 6.16755 8.84979ZM11.1016 8.84979C10.4201 8.84979 9.86808 8.15964 9.86808 7.3079C9.86808 6.45616 10.4201 5.76601 11.1016 5.76601C11.7831 5.76601 12.3351 6.45616 12.3351 7.3079C12.3351 8.15964 11.7831 8.84979 11.1016 8.84979Z" fill="#808191"/>
</svg>
