<svg width="13" height="13" viewBox="0 0 13 13" fill="none" xmlns="http://www.w3.org/2000/svg">
<path d="M11.2453 0H1.51964C0.680797 0 0 0.680797 0 1.51964V11.2453C0 12.0842 0.680797 12.7649 1.51964 12.7649H11.2453C12.0842 12.7649 12.7649 12.0842 12.7649 11.2453V1.51964C12.7649 0.680797 12.0842 0 11.2453 0ZM3.95106 4.86284V10.6375H2.12749V4.86284H3.95106ZM2.12749 3.18212C2.12749 2.75662 2.4922 2.43142 3.03927 2.43142C3.58634 2.43142 3.92978 2.75662 3.95106 3.18212C3.95106 3.60762 3.61066 3.95106 3.03927 3.95106C2.4922 3.95106 2.12749 3.60762 2.12749 3.18212ZM10.6375 10.6375H8.81389C8.81389 10.6375 8.81389 7.82309 8.81389 7.59818C8.81389 6.99033 8.50997 6.38247 7.75015 6.37032H7.72583C6.99033 6.37032 6.6864 6.99641 6.6864 7.59818C6.6864 7.87476 6.6864 10.6375 6.6864 10.6375H4.86284V4.86284H6.6864V5.64089C6.6864 5.64089 7.27298 4.86284 8.45222 4.86284C9.65881 4.86284 10.6375 5.69256 10.6375 7.37328V10.6375Z" fill="#808191"/>
</svg>
