<svg width="16" height="20" viewBox="0 0 16 20" fill="none" xmlns="http://www.w3.org/2000/svg">
              <path
                d="M7.99998 0C3.58199 0 0 3.582 0 8C0 11.467 2.248 15.412 5.281 18.688C5.379 18.793 5.459 18.875 5.562 18.969C6.421 19.738 7.31099 20.01 7.99998 20C8.00898 20 8.02399 20 8.03099 20C8.74899 20 9.76098 19.677 10.719 18.719C13.629 15.809 16 11.518 16 8C16 3.582 12.418 0 7.99998 0ZM7.99998 5C9.65698 5 11 6.343 11 8C11 9.657 9.65698 11 7.99998 11C6.34299 11 4.99999 9.657 4.99999 8C4.99999 6.343 6.34299 5 7.99998 5Z"
                fill="#808191" />
            </svg>