<svg width="15" height="12" viewBox="0 0 15 12" fill="none" xmlns="http://www.w3.org/2000/svg">
<path d="M2.9535 0C1.42799 0 0.234005 0.385496 0.0232545 1.85175C-0.0442457 2.32125 0.104246 2.78325 0.445497 3.117C0.614997 3.28275 0.794252 3.48 1.03125 3.6795C1.626 4.18125 2.38426 4.74525 3.09376 5.25C5.04601 6.6375 6.58727 7.5 7.50002 7.5C8.41277 7.5 9.95402 6.6375 11.9063 5.25C12.6165 4.74525 13.3748 4.1805 13.9688 3.6795C14.2058 3.48 14.385 3.2835 14.5545 3.117C14.8958 2.78325 15.0443 2.32125 14.9768 1.85175C14.766 0.385496 13.572 0 12.0465 0H2.9535ZM0 4.617V9C0 10.6567 1.34325 12 3.00001 12H12C13.6568 12 15 10.6567 15 9V4.617C14.385 5.20125 13.698 5.80425 12.7268 6.492C10.5998 7.998 8.68952 9 7.50002 9C6.31052 9 4.40027 7.998 2.27326 6.492C1.30126 5.80425 0.615001 5.20125 0 4.617Z" fill="#808191"/>
</svg>
