<svg width="20" height="16" viewBox="0 0 20 16" fill="none" xmlns="http://www.w3.org/2000/svg">
<path d="M1.06024 5.55604C0.40984 5.82904 0.00614024 6.31503 4.02382e-05 7.00303C-0.00415976 7.48403 0.320439 8.13005 0.970839 8.39405C1.23874 8.50305 5.00024 9.00904 5.00024 9.00904C5.00024 9.00904 5.99584 12.156 6.35464 13.262C6.45854 13.582 6.51774 13.739 6.74574 13.948C7.13254 14.302 7.78644 14.1911 8.06924 13.9071C8.81744 13.1571 10 12 10 12L10.4977 12.405C10.4977 12.405 12.7078 14.168 13.9159 14.998C14.6272 15.487 15.1209 15.997 15.9215 16C16.3293 16.002 16.9834 15.799 17.4158 15.304C17.7015 14.977 17.8848 14.454 17.9557 13.985C18.1169 12.92 20.008 1.40404 20 1.00104C19.9872 0.35804 19.4463 -0.0039672 18.9967 3.28002e-05C18.7143 0.0030328 18.4816 0.0850443 17.9638 0.243044C13.9584 1.46605 1.32554 5.44504 1.06024 5.55604ZM16 3.00004C16 3.00004 10.722 7.59405 8.61294 9.70805C7.93724 10.385 7.88954 11.547 7.88954 11.547L6.79934 8.05903L16 3.00004Z" fill="#F0F2F6"/>
</svg>
