<svg width="16" height="13" viewBox="0 0 16 13" fill="none" xmlns="http://www.w3.org/2000/svg">
<path d="M15.7083 1.51096C15.1302 1.76772 14.5091 1.94051 13.8572 2.01844C14.523 1.61971 15.0335 0.988379 15.274 0.235616C14.6517 0.604748 13.9618 0.872987 13.2271 1.01798C12.6393 0.391485 11.8019 0 10.8752 0C9.09538 0 7.65269 1.4433 7.65269 3.2225C7.65269 3.47503 7.68169 3.72152 7.73606 3.95654C5.05789 3.82242 2.68361 2.53922 1.0935 0.58904C0.816802 1.06511 0.657912 1.6185 0.657912 2.20996C0.657912 3.32762 1.22641 4.31419 2.09094 4.89175C1.56292 4.87483 1.06571 4.72984 0.63133 4.48879C0.63133 4.50268 0.63133 4.51537 0.63133 4.52926C0.63133 6.09098 1.74175 7.39351 3.21646 7.68894C2.94641 7.76264 2.66125 7.80191 2.36703 7.80191C2.15981 7.80191 1.95743 7.78137 1.76108 7.74452C2.17129 9.0247 3.36145 9.95689 4.77153 9.98287C3.66896 10.8474 2.27943 11.3627 0.769075 11.3627C0.509293 11.3627 0.252532 11.3476 0 11.3174C1.42638 12.2315 3.1198 12.7649 4.94008 12.7649C10.8679 12.7649 14.1086 7.85447 14.1086 3.59586C14.1086 3.45631 14.1055 3.31735 14.0995 3.179C14.7296 2.72408 15.2764 2.15679 15.7083 1.51096Z" fill="#808191"/>
</svg>
